<svg xmlns="http://www.w3.org/2000/svg" viewBox="0 0 121.27 139.06"><defs><style>.cls-1{fill:#7fd0d8;}.cls-2{fill:#a87eea;}.cls-3{fill:#d7f0f3;}.cls-4{fill:#e8d01d;}.cls-5{fill:none;stroke:#000;stroke-miterlimit:10;stroke-width:1.5px;}</style></defs><title>Asset 4</title><g id="Layer_2" data-name="Layer 2"><g id="Layer_1-2" data-name="Layer 1"><g id="Layer_1-2-2" data-name="Layer 1-2-2"><path d="M116.62,78.52c2.1,1.23,6.5,5.3,4.3,13.33,0,0-2.1,16.5-2.3,17.8s-11.7,5.2-14.1,5.2h-.3c-1.5-.5-2.9,18.7-8,18.8l-2.11.17-.19-2.27v0c7.4-.2,8-68.1,9-69.57l2.53-.45,1.17,6.62C108.72,73.32,111.92,77.12,116.62,78.52Zm.9,5.73c.3-4.3-8-5.1-9.2-4.8-3.2.7-5.5,28.5-3.8,28.6,2.3,1.4,10.6-.1,11.2-3v0S117.22,88.55,117.52,84.25Z" transform="translate(-0.25)"/><path class="cls-1" d="M108.32,79.45c1.2-.3,9.5.5,9.2,4.8s-1.8,20.77-1.8,20.77v0c-.6,2.9-8.9,4.4-11.2,3C102.82,108,105.12,80.15,108.32,79.45Z" transform="translate(-0.25)"/><path d="M105.22,60.22l.23,1.28-2.53.45c-.6-1-1.3-1.1-2.1-.1.06,5.23-7.58,8.74-14.92,9.09l0-1C94.61,69.43,98.09,55.52,87,53l-.6.14-.23-2C93,50.28,100.31,52.31,105.22,60.22Z" transform="translate(-0.25)"/><path class="cls-1" d="M100.82,61.85c.8-1,1.5-.9,2.1.1-1,1.47-1.6,69.37-9,69.57v0l-62,4.2c-10.2,3.3-6.7-65.7-6.4-67.2.6,7.4,19.6,7.5,22.8-2.5H53c.34.42.66.85,1,1.28,3.67,5.25,4.84,10.81,15.84-.28.5-.6,3-2.1,3.7-.8,2,3.56,7.1,5,12.38,4.69C93.24,70.59,100.88,67.08,100.82,61.85Zm-21.2,48.87c12.1,1.4,20.8-30.7,3.2-33.4C57.72,73.52,66.52,112.82,79.62,110.72Zm-5.5,10.2c.6-1.2-.8-2.5-2.4-2.1a14.41,14.41,0,0,0-4.9,2.1A8.45,8.45,0,0,1,62,123c-2,.2-4.1.7-6.1.4-2.3-.4-4.5-1.6-6.8-2.4a6.06,6.06,0,0,0-1.4-.2c.2.5.3,1,.5,1.5a.78.78,0,0,0,.4.4c1.4.7,2.7,1.6,4.2,2.2a13.86,13.86,0,0,0,6,1.4c4.8-.1,8.43-.7,11.4-2.9.7-.5,1.6-.7,2.3-1.2A3.45,3.45,0,0,0,74.12,120.92Zm-31.8-10.2c12.1,1.4,20.8-30.7,3.2-33.4C20.42,73.52,29.25,112.82,42.32,110.72Z" transform="translate(-0.25)"/><path class="cls-2" d="M93.82,4.82a2.69,2.69,0,0,1,1.43,2.8l-1.33,8.13A2.65,2.65,0,0,1,91.72,18l-8.2,1.3a2.69,2.69,0,0,1-2.8-1.4l-3.8-7.4a2.74,2.74,0,0,1,.5-3.1l5.9-5.9a2.74,2.74,0,0,1,3.1-.5Z" transform="translate(-0.25)"/><path d="M93.92,131.55l.19,2.27-64.19,5.23c-5.6.5-9-15.8-9-15.7h-2.6A14.6,14.6,0,0,1,5,118.55c-7.6-13.6-6.4-25.1,5.6-34.1l3.5-3a27.05,27.05,0,0,0,6-8.3,75.2,75.2,0,0,0,5.2-15.8c3.1-4.5,6.8-8,15.3-3.1l4.9,5.1c1.1,1.7,1.5,1.3,1.6-.3-2.3-5.7-3.5-16.7,1.2-16.6L59,45.05c1.4,0,1.9-.6,1.8-1.5L60,30.15c-.4-1.6.5-2.4,2.4-2.5L77,31.15c2.2.2,3.1-.5,2.3-2.4l-1.4-5c-.2-2.2,1.2-2.2,2.6-2l.4.1s2.8,10.2,1.1,11.4c-1.5,1.1-9-1.1-15.8-2.9-1.8-.5-2.8-.1-2.5,2l.7,9.9c-.7,5.7-4.5,5.6-8.6,4.9l-5.1-1.3c-.9-.2-1.4.1-1.4,1.1l.3,3,.5,2.8.6,5.9c.5,1.2,1.1,1.3,1.8.2l.27-.55,1.08.5c-1.27,2.15-.21,5.55,1.68,8.28L54,67.33c-.3-.43-.62-.86-1-1.28h-4.7c-3.2,10-22.2,9.9-22.8,2.5-.3,1.5-3.8,70.5,6.4,67.2Zm-58.2-59.8c11.4-2.7,2.4-17.4-3.6-16.3v0C26.25,56.52,24.62,70.82,35.72,71.75Zm-15,46.37c.8-12.37-.3-23.6-4.8-32.4C-7.58,94,8.72,123.22,20.72,118.12Z" transform="translate(-0.25)"/><path class="cls-3" d="M77.42,84.12c1.4-9.8,15.4-2,12.4,6.8.6,2.2-7.9,5.4-10,1.8C78.42,90.32,77.42,84.42,77.42,84.12Z" transform="translate(-0.25)"/><path class="cls-4" d="M87,53c11.07,2.5,7.59,16.41-1.16,16.91-.34,0-.69,0-1,0-9-3.74-10.55-13.68,1.6-16.76Z" transform="translate(-0.25)"/><path class="cls-3" d="M87.82,100.32c.7,10.5-18.8,9.5-18-3.7.1-1.5-1.2-8.1,2-8.7,4.3-.8,4.7,7.9,6.1,9,1.2,1,7.7,2.1,7.9,2C87.42,98.62,87.62,98.62,87.82,100.32Z" transform="translate(-0.25)"/><path d="M86.19,51.12l.23,2c-12.15,3.08-10.56,13-1.6,16.76.35,0,.7,0,1,0l0,1c-5.28.26-10.41-1.13-12.38-4.69-.7-1.3-3.2.2-3.7.8-11,11.09-12.17,5.53-15.84.28l1.57-.25c1.77,2.57,4.27,4.55,6.27,4.37,12.8-8.8,1-16.7-4.1-14.7a4.71,4.71,0,0,0-3.85,2l-1.08-.5c4.09-7.54,16.07-.82,17.73.45C73.6,55.33,79.67,51.91,86.19,51.12Z" transform="translate(-0.25)"/><path d="M82.82,77.32c17.6,2.7,8.9,34.8-3.2,33.4C66.52,112.82,57.72,73.52,82.82,77.32Zm7,13.6c3-8.8-11-16.6-12.4-6.8,0,.3,1,6.2,2.4,8.6C81.92,96.32,90.42,93.12,89.82,90.92Zm-20,5.7c-.8,13.2,18.7,14.2,18,3.7-.2-1.7-.4-1.7-2-1.4-.2.1-6.7-1-7.9-2-1.4-1.1-1.8-9.8-6.1-9C68.62,88.52,69.92,95.12,69.82,96.62Z" transform="translate(-0.25)"/><path d="M71.72,118.82c1.6-.4,3,.9,2.4,2.1a3.45,3.45,0,0,1-1.6,1.3c-.7.5-1.6.7-2.3,1.2-3,2.2-6.6,2.8-11.4,2.9a13.86,13.86,0,0,1-6-1.4c-1.5-.6-2.8-1.5-4.2-2.2a.78.78,0,0,1-.4-.4c-.2-.5-.3-1-.5-1.5a6.06,6.06,0,0,1,1.4.2c2.3.8,4.5,2,6.8,2.4,2,.3,4.1-.2,6.1-.4a8.45,8.45,0,0,0,4.8-2.1A14.41,14.41,0,0,1,71.72,118.82Z" transform="translate(-0.25)"/><path class="cls-4" d="M57.72,56.75c5.1-2,16.9,5.9,4.1,14.7-2,.18-4.5-1.8-6.27-4.37C53.66,64.35,52.6,61,53.87,58.8A4.71,4.71,0,0,1,57.72,56.75Z" transform="translate(-0.25)"/><path class="cls-3" d="M40.12,84.12c1.4-9.8,15.4-2,12.4,6.8.6,2.2-7.9,5.4-10,1.8C41.12,90.32,40,84.42,40.12,84.12Z" transform="translate(-0.25)"/><path class="cls-3" d="M50.52,100.32c.7,10.5-18.9,9.5-18-3.7.1-1.5-1.2-8.1,2-8.7,4.3-.8,4.9,8,6.1,9s7.7,2.1,7.9,2C50.12,98.72,50.32,98.62,50.52,100.32Z" transform="translate(-0.25)"/><path d="M45.52,77.32c17.6,2.7,8.9,34.8-3.2,33.4C29.25,112.82,20.42,73.52,45.52,77.32Zm7,13.6c3-8.8-11-16.6-12.4-6.8-.1.3,1,6.2,2.4,8.6C44.62,96.32,53.12,93.12,52.52,90.92Zm-20,5.7c-.9,13.2,18.7,14.2,18,3.7-.2-1.7-.4-1.6-2-1.4-.2.1-6.7-1-7.9-2s-1.8-9.8-6.1-9C31.32,88.52,32.62,95.12,32.52,96.62Z" transform="translate(-0.25)"/><path class="cls-4" d="M32.12,55.45c6-1.1,15,13.6,3.6,16.3-11.1-.93-9.47-15.23-3.6-16.33Z" transform="translate(-0.25)"/><path class="cls-1" d="M15.92,85.72c4.5,8.8,5.6,20,4.8,32.4C8.72,123.22-7.58,94,15.92,85.72Z" transform="translate(-0.25)"/><path class="cls-5" d="M91.72,18l-8.2,1.3a2.69,2.69,0,0,1-2.8-1.4l-3.8-7.4a2.74,2.74,0,0,1,.5-3.1l5.9-5.9a2.74,2.74,0,0,1,3.1-.5l7.4,3.8a2.69,2.69,0,0,1,1.43,2.8l-1.33,8.13A2.65,2.65,0,0,1,91.72,18Z" transform="translate(-0.25)"/></g></g></g></svg>